<svg width="24" height="25" viewBox="0 0 24 25" fill="none" xmlns="http://www.w3.org/2000/svg">
<path d="M21.75 20.9395L16.086 15.2755C17.4471 13.6415 18.1258 11.5456 17.981 9.42392C17.8361 7.30222 16.8789 5.31804 15.3084 3.88413C13.7379 2.45023 11.675 1.677 9.54893 1.72531C7.42284 1.77362 5.39723 2.63974 3.89347 4.1435C2.38971 5.64726 1.52359 7.67288 1.47528 9.79896C1.42697 11.9251 2.2002 13.9879 3.6341 15.5584C5.06801 17.1289 7.05219 18.0862 9.17389 18.231C11.2956 18.3758 13.3914 17.6971 15.0255 16.336L20.6895 22L21.75 20.9395ZM2.99996 10C2.99996 8.66497 3.39585 7.35993 4.13754 6.2499C4.87924 5.13986 5.93345 4.2747 7.16685 3.76381C8.40025 3.25292 9.75745 3.11924 11.0668 3.37969C12.3762 3.64014 13.5789 4.28302 14.5229 5.22702C15.4669 6.17103 16.1098 7.37376 16.3703 8.68314C16.6307 9.99251 16.497 11.3497 15.9862 12.5831C15.4753 13.8165 14.6101 14.8707 13.5001 15.6124C12.39 16.3541 11.085 16.75 9.74996 16.75C7.96036 16.748 6.24463 16.0362 4.97919 14.7708C3.71375 13.5053 3.00195 11.7896 2.99996 10Z" fill="white"/>
</svg>
