<svg width="26" height="26" viewBox="0 0 26 26" fill="none" xmlns="http://www.w3.org/2000/svg">
<path d="M17.1148 17.6398H20.8948C22.3858 17.6153 24.6667 18.4005 24.6667 21.2332C24.6667 24.1732 21.8527 24.6667 20.8937 24.6667H8.27034C5.34434 24.6667 1.33334 24.0728 1.33334 19.0317V8.33568H24.6667V13.6055M19.419 15.3053L17.4333 16.962C17.3365 17.0467 17.2582 17.1506 17.2033 17.267C17.1485 17.3835 17.1184 17.51 17.1148 17.6387C17.1115 17.776 17.1386 17.9123 17.1941 18.0379C17.2495 18.1636 17.332 18.2754 17.4357 18.3655L19.419 19.979M1.34034 8.32284L2.41484 5.63951C3.2875 3.55234 3.72384 2.50934 4.60817 1.92251C5.4925 1.33568 6.6265 1.33334 8.89334 1.33334H17.0833C19.3513 1.33334 20.4853 1.33334 21.3697 1.92134C22.254 2.50818 22.6892 3.55118 23.563 5.63718L24.6667 8.32751M12.9568 8.33451V1.33451M10.6235 13.0012H15.2902" stroke="black" stroke-width="1.5" stroke-linecap="round" stroke-linejoin="round"/>
</svg>
