<svg width="24" height="26" viewBox="0 0 24 26" fill="none" xmlns="http://www.w3.org/2000/svg">
<path d="M18.4267 24.6907L1.00408 2.29067C0.912249 2.17241 0.855448 2.03076 0.840134 1.88183C0.82482 1.73289 0.851608 1.58265 0.917452 1.44818C0.983296 1.31371 1.08555 1.20042 1.21259 1.12119C1.33963 1.04196 1.48636 0.999974 1.63608 1H4.94275C5.06447 1.00018 5.18456 1.02814 5.29385 1.08174C5.40314 1.13535 5.49875 1.21319 5.57341 1.30933L22.9961 23.7093C23.0879 23.8276 23.1447 23.9692 23.16 24.1182C23.1753 24.2671 23.1485 24.4174 23.0827 24.5518C23.0169 24.6863 22.9146 24.7996 22.7876 24.8788C22.6605 24.958 22.5138 25 22.3641 25H19.0574C18.9357 24.9998 18.8156 24.9719 18.7063 24.9183C18.597 24.8647 18.5014 24.7868 18.4267 24.6907Z" stroke="white" stroke-width="1.5"/>
</svg>
