<svg width="32" height="32" viewBox="0 0 32 32" fill="none" xmlns="http://www.w3.org/2000/svg">
<path d="M22.4267 27.6907L5.00408 5.29067C4.91225 5.17241 4.85545 5.03076 4.84013 4.88183C4.82482 4.73289 4.85161 4.58265 4.91745 4.44818C4.9833 4.31371 5.08555 4.20042 5.21259 4.12119C5.33963 4.04196 5.48636 3.99997 5.63608 4H8.94275C9.06447 4.00018 9.18456 4.02814 9.29385 4.08174C9.40314 4.13535 9.49875 4.21319 9.57341 4.30933L26.9961 26.7093C27.0879 26.8276 27.1447 26.9692 27.16 27.1182C27.1753 27.2671 27.1485 27.4174 27.0827 27.5518C27.0169 27.6863 26.9146 27.7996 26.7876 27.8788C26.6605 27.958 26.5138 28 26.3641 28H23.0574C22.9357 27.9998 22.8156 27.9719 22.7063 27.9183C22.597 27.8647 22.5014 27.7868 22.4267 27.6907Z" stroke="white" stroke-width="1.5"/>
<path d="M26.6668 4L5.3335 28" stroke="white" stroke-width="1.5" stroke-linecap="round"/>
</svg>
